<svg xmlns="http://www.w3.org/2000/svg" width="95.362" height="94.584" viewBox="0 0 95.362 94.584">
  <g id="Group_2523" data-name="Group 2523" transform="translate(1 1.143)">
    <path id="Path_1422" data-name="Path 1422" d="M52.729,20.754s.44,8.566,10.786,11.979c0,0-2.332,29.566-24.764,36.72-22.144-6.989-24.763-36.72-24.763-36.72C24.333,29.32,24.774,20.754,24.774,20.754Z" transform="translate(7.931 12.584)" fill="none" stroke="#231f20" stroke-linecap="round" stroke-linejoin="round" stroke-width="2"/>
    <path id="Path_1423" data-name="Path 1423" d="M23.366,37.962l7.264,7.264,13.044-17.17" transform="translate(14.38 17.605)" fill="none" stroke="#231f20" stroke-linecap="round" stroke-linejoin="round" stroke-width="2"/>
    <path id="Path_1424" data-name="Path 1424" d="M87.253,23.987V77.634H3.994V23.987" transform="translate(1.059 14.808)" fill="none" stroke="#231f20" stroke-linecap="round" stroke-linejoin="round" stroke-width="2"/>
    <path id="Path_1425" data-name="Path 1425" d="M94.362,34.78v4.361a2.2,2.2,0,0,1-3.5,1.779L48.986,10.363a2.229,2.229,0,0,0-2.626,0L4.5,40.918A2.2,2.2,0,0,1,1,39.141V34.78A2.206,2.206,0,0,1,1.906,33L44.533,2.021a5.339,5.339,0,0,1,6.281,0L93.454,33A2.2,2.2,0,0,1,94.362,34.78Z" transform="translate(-1 -0.999)" fill="none" stroke="#231f20" stroke-linecap="round" stroke-linejoin="round" stroke-width="2"/>
    <path id="Path_1426" data-name="Path 1426" d="M43.275,14.925V4.981H56.156v19.3" transform="translate(28.07 1.739)" fill="none" stroke="#231f20" stroke-linecap="round" stroke-linejoin="round" stroke-width="2"/>
    <line id="Line_159" data-name="Line 159" x2="17.582" transform="translate(68.995 6.72)" fill="none" stroke="#231f20" stroke-linecap="round" stroke-linejoin="round" stroke-width="2"/>
  </g>
</svg>
