<?xml version="1.0" encoding="UTF-8"?>
<svg id="Layer_1" data-name="Layer 1" xmlns="http://www.w3.org/2000/svg" xmlns:xlink="http://www.w3.org/1999/xlink" viewBox="0 0 953.22 131.48">
  <defs>
    <style>
      .cls-1 {
        fill: #241f5b;
      }

      .cls-2 {
        fill: #292461;
      }

      .cls-3 {
        fill: #241f5c;
      }

      .cls-4 {
        fill: #ffff;
      }
       <!-- .cls-4 {
        fill: #25b572;
      } -->

      .cls-5 {
        fill: #2a2562;
      }

      .cls-6 {
        fill: #26215e;
      }

      .cls-7 {
        fill: #25205d;
      }

      .cls-8 {
        fill: #2a2563;
      }

      .cls-9 {
        fill: #27225f;
      }

      .cls-10 {
        clip-path: url(#clippath);
      }

      .cls-11 {
        fill: none;
      }

      .cls-12 {
        fill: #27235f;
      }

      .cls-13 {
        fill: #282360;
      }

      .cls-14 {
        fill: #2b2663;
      }

      .cls-15 {
        fill: #25205c;
      }

      .cls-16 {
        fill: #282461;
      }
    </style>
    <clipPath id="clippath">
      <path class="cls-11" d="m891.44,79.96c0,7.93-6.45,14.39-14.39,14.39s-14.39-6.45-14.39-14.39v-30.96c0-7.93,6.45-14.39,14.39-14.39s14.39,6.45,14.39,14.39v30.96Z"/>
    </clipPath>
  </defs>
  <g class="cls-10">
    <polygon class="cls-14" points="865 34.61 862.67 51.01 862.67 34.61 865 34.61"/>
    <polygon class="cls-8" points="867.59 34.61 862.67 69.26 862.67 51.01 865 34.61 867.59 34.61"/>
    <polygon class="cls-5" points="870.18 34.61 862.67 87.51 862.67 69.26 867.59 34.61 870.18 34.61"/>
    <polygon class="cls-2" points="872.77 34.61 864.29 94.35 862.67 94.35 862.67 87.51 870.18 34.61 872.77 34.61"/>
    <polygon class="cls-16" points="875.35 34.61 866.88 94.35 864.29 94.35 872.77 34.61 875.35 34.61"/>
    <polygon class="cls-13" points="877.94 34.61 869.47 94.35 866.88 94.35 875.35 34.61 877.94 34.61"/>
    <polygon class="cls-12" points="880.53 34.61 872.06 94.35 869.47 94.35 877.94 34.61 880.53 34.61"/>
    <polygon class="cls-9" points="883.12 34.61 874.65 94.35 872.06 94.35 880.53 34.61 883.12 34.61"/>
    <polygon class="cls-6" points="885.71 34.61 877.24 94.35 874.65 94.35 883.12 34.61 885.71 34.61"/>
    <polygon class="cls-6" points="888.3 34.61 879.83 94.35 877.24 94.35 885.71 34.61 888.3 34.61"/>
    <polygon class="cls-7" points="890.89 34.61 882.42 94.35 879.83 94.35 888.3 34.61 890.89 34.61"/>
    <polygon class="cls-15" points="891.44 48.98 885.01 94.35 882.42 94.35 890.89 34.61 891.44 34.61 891.44 48.98"/>
    <polygon class="cls-3" points="891.44 67.23 887.59 94.35 885.01 94.35 891.44 48.98 891.44 67.23"/>
    <polygon class="cls-1" points="891.44 85.48 890.18 94.35 887.59 94.35 891.44 67.23 891.44 85.48"/>
    <polygon class="cls-1" points="890.18 94.35 891.44 85.48 891.44 94.35 890.18 94.35"/>
  </g>
  <path class="cls-4" d="m877.06,34.61c-7.93,0-14.39,6.45-14.39,14.39v30.96c0,7.93,6.45,14.39,14.39,14.39s14.39-6.45,14.39-14.39v-30.96c0-7.93-6.45-14.39-14.39-14.39Z"/>
  <path class="cls-4" d="m75.04,85.21c-3.53,1.7-7.13,2.55-10.79,2.55-3.84,0-7.22-.76-10.12-2.28-2.91-1.52-5.16-3.66-6.77-6.44-1.61-2.77-2.41-5.99-2.41-9.65,0-4.2.62-8.04,1.88-11.53,1.25-3.49,2.99-6.5,5.23-9.05,2.23-2.55,4.89-4.51,7.98-5.9,3.08-1.39,6.5-2.08,10.26-2.08,4.29,0,8,.96,11.13,2.88,3.13,1.92,5.68,4.63,7.64,8.11l22.79-17.83c-3.4-6.08-8.58-10.73-15.55-13.94-6.97-3.22-14.97-4.83-24-4.83s-16.63,1.36-23.87,4.09c-7.24,2.73-13.5,6.59-18.77,11.6-5.27,5.01-9.36,10.95-12.27,17.83-2.91,6.88-4.36,14.44-4.36,22.66s1.99,15.62,5.97,21.92c3.98,6.3,9.59,11.22,16.83,14.75,7.24,3.53,15.69,5.3,25.34,5.3,8.67,0,16.51-1.36,23.53-4.09,7.02-2.73,13.38-7.57,19.11-14.55l-18.64-17.83c-3.22,3.84-6.59,6.62-10.12,8.31Z"/>
  <path class="cls-4" d="m195.17,20.59c-7.11-3.57-15.53-5.36-25.27-5.36-8.58,0-16.49,1.36-23.73,4.09-7.24,2.73-13.5,6.59-18.77,11.6-5.28,5.01-9.36,10.93-12.27,17.76-2.91,6.84-4.36,14.41-4.36,22.73s1.94,15.49,5.83,21.79c3.89,6.3,9.39,11.24,16.49,14.82,7.11,3.57,15.53,5.36,25.27,5.36,8.58,0,16.49-1.36,23.73-4.09,7.24-2.73,13.5-6.59,18.77-11.6,5.27-5,9.36-10.93,12.27-17.76,2.9-6.84,4.36-14.41,4.36-22.73s-1.94-15.49-5.83-21.79c-3.89-6.3-9.39-11.24-16.49-14.82Zm-11.2,49.41c-1.07,3.44-2.68,6.5-4.83,9.18-2.15,2.68-4.72,4.78-7.71,6.3-3,1.52-6.46,2.28-10.39,2.28s-7.13-.76-9.85-2.28c-2.73-1.52-4.83-3.66-6.3-6.44-1.47-2.77-2.21-5.94-2.21-9.52,0-3.84.54-7.49,1.61-10.93,1.07-3.44,2.68-6.5,4.83-9.18,2.15-2.68,4.74-4.78,7.78-6.3,3.04-1.52,6.48-2.28,10.32-2.28s7.13.76,9.85,2.28c2.73,1.52,4.83,3.64,6.3,6.37,1.47,2.73,2.21,5.92,2.21,9.59,0,3.84-.54,7.49-1.61,10.93Z"/>
  <polygon class="cls-4" points="323.41 17.37 284.15 67.22 263.75 17.37 238.01 17.37 219.24 111.23 248.06 111.23 256.48 69.05 270.99 102.78 284.93 102.78 311.35 68.39 303.03 111.23 331.86 111.23 350.36 17.37 323.41 17.37"/>
  <path class="cls-4" d="m436.78,25.55c-6.84-5.45-16.56-8.18-29.16-8.18h-41.7l-18.77,93.85h31.64l4.61-23.06h16.17c9.65,0,18.03-1.65,25.14-4.96,7.11-3.31,12.6-7.95,16.49-13.94,3.89-5.99,5.83-12.92,5.83-20.78,0-9.83-3.42-17.47-10.26-22.93Zm-25.41,34.93c-2.41,2.19-5.81,3.29-10.19,3.29h-12.96l4.39-21.99h10.58c3.66,0,6.55.74,8.65,2.21,2.1,1.47,3.15,3.91,3.15,7.31,0,3.93-1.21,6.99-3.62,9.18Z"/>
  <polygon class="cls-4" points="495.84 17.37 464.19 17.37 445.42 111.23 519.43 111.23 524.39 86.69 482.03 86.69 495.84 17.37"/>
  <polygon class="cls-4" points="563.95 87.36 566.42 75.02 606.18 75.02 610.74 52.23 570.99 52.23 573.2 41.24 618.38 41.24 623.21 17.37 546.92 17.37 528.15 111.23 606.18 111.23 611.01 87.36 563.95 87.36"/>
  <polygon class="cls-4" points="730.47 17.37 694.8 17.37 674.64 40.8 663.16 17.37 629.38 17.37 653.08 62.76 608.86 111.23 646.67 111.23 667.01 87.08 678.72 111.23 712.9 111.23 687.7 64.54 730.47 17.37"/>
  <path class="cls-4" d="m925.54,13.16h-169.12c-7.08,0-13.15,5.07-14.41,12.04l-13.72,75.86c-1.63,8.99,5.28,17.25,14.41,17.25h169.12c7.08,0,13.15-5.07,14.41-12.04l13.72-75.86c1.63-8.99-5.28-17.25-14.41-17.25Zm-169.1,4.14h52.95l-16.13,30.1h0s-8.76,16.31-8.76,16.31c-1.97-.69-4.13-1.05-6.51-1.05-2.05,0-4,.26-5.85.77-1.85.51-3.76,1.28-5.75,2.31l16.62-32.43h-26.01l14.45-15.94h-15.02v-.07Zm152.5,62.65c0,17.58-14.3,31.89-31.89,31.89s-31.89-14.3-31.89-31.89v-.71h0c0-.09,0-.18,0-.28,0-2.94-.7-5.63-2.1-8.06-1.4-2.43-3.32-4.38-5.75-5.85-2.43-1.47-5.18-2.21-8.26-2.21s-5.73.74-8.16,2.21c-2.43,1.47-4.36,3.42-5.8,5.85-1.44,2.43-2.15,5.11-2.15,8.06s.72,5.63,2.15,8.05c1.44,2.43,3.37,4.38,5.8,5.85,2.43,1.47,5.15,2.21,8.16,2.21s5.52-.69,7.88-2.05l-9.99,18.61c-5.4-.29-10.36-1.7-14.87-4.25-3.17-1.79-5.93-3.96-8.28-6.51-2.45,2.6-5.31,4.79-8.56,6.57-5.2,2.84-10.88,4.26-17.03,4.26-5.82,0-11.17-1.28-16.06-3.85-4.89-2.57-8.84-5.93-11.85-10.11l9.34-18.37c1.09,4.31,3.33,8,6.72,11.08s7.4,4.62,12.06,4.62c3.15,0,5.97-.72,8.47-2.15,2.5-1.44,4.48-3.39,5.95-5.85,1.47-2.46,2.21-5.23,2.21-8.31,0-1.77-.25-3.44-.74-5.01l5.52-10.48s0,0,0,0l2.64-5.01.62-1.18,20.96-39.78h18.88l-16.62,30.58c.75-.14,1.52-.24,2.31-.31.79-.07,1.56-.1,2.31-.1,5.16,0,9.91,1.12,14.26,3.36v-1.83c0-17.58,14.3-31.89,31.89-31.89s31.89,14.3,31.89,31.89v30.96Z"/>
</svg>