<svg xmlns="http://www.w3.org/2000/svg" width="95.362" height="94.584" viewBox="0 0 95.362 94.584">
  <g id="Group_2524" data-name="Group 2524" transform="translate(1 1.143)">
    <path id="Path_1427" data-name="Path 1427" d="M161.21,23.987V77.634H77.95V23.987" transform="translate(-72.897 14.808)" fill="none" stroke="#231f20" stroke-linecap="round" stroke-linejoin="round" stroke-width="2"/>
    <path id="Path_1428" data-name="Path 1428" d="M168.318,34.78v4.361a2.2,2.2,0,0,1-3.5,1.779L122.942,10.363a2.229,2.229,0,0,0-2.626,0L78.454,40.918a2.2,2.2,0,0,1-3.5-1.777V34.78A2.206,2.206,0,0,1,75.862,33L118.489,2.021a5.339,5.339,0,0,1,6.281,0L167.41,33A2.2,2.2,0,0,1,168.318,34.78Z" transform="translate(-74.956 -0.999)" fill="none" stroke="#231f20" stroke-linecap="round" stroke-linejoin="round" stroke-width="2"/>
    <path id="Path_1429" data-name="Path 1429" d="M117.231,14.925V4.981h12.882v19.3" transform="translate(-45.886 1.739)" fill="none" stroke="#231f20" stroke-linecap="round" stroke-linejoin="round" stroke-width="2"/>
    <line id="Line_160" data-name="Line 160" x2="17.582" transform="translate(68.995 6.72)" fill="none" stroke="#231f20" stroke-linecap="round" stroke-linejoin="round" stroke-width="2"/>
    <circle id="Ellipse_196" data-name="Ellipse 196" cx="22.343" cy="22.343" r="22.343" transform="translate(24.339 35.345)" fill="none" stroke="#231f20" stroke-linecap="round" stroke-linejoin="round" stroke-width="2"/>
    <line id="Line_161" data-name="Line 161" x2="22.57" y2="22.57" transform="translate(35.398 46.403)" fill="none" stroke="#231f20" stroke-linecap="round" stroke-linejoin="round" stroke-width="2"/>
    <line id="Line_162" data-name="Line 162" x1="22.57" y2="22.57" transform="translate(35.397 46.403)" fill="none" stroke="#231f20" stroke-linecap="round" stroke-linejoin="round" stroke-width="2"/>
  </g>
</svg>
