<svg xmlns="http://www.w3.org/2000/svg" width="95.971" height="104.579" viewBox="0 0 95.971 104.579">
  <g id="Group_2534" data-name="Group 2534" transform="translate(-4235.744 -5340.29)">
    <g id="Group_2533" data-name="Group 2533">
      <path id="Path_1531" data-name="Path 1531" d="M10.77,22.31V80.6H48.008" transform="translate(4235.332 5353.146)" fill="none" stroke="#231f20" stroke-linecap="round" stroke-linejoin="round" stroke-miterlimit="10" stroke-width="2"/>
      <line id="Line_226" data-name="Line 226" y1="18.468" transform="translate(4316.713 5375.456)" fill="none" stroke="#231f20" stroke-linecap="round" stroke-linejoin="round" stroke-miterlimit="10" stroke-width="2"/>
      <path id="Path_1532" data-name="Path 1532" d="M52.547,12.553,90.706,41.07a2.632,2.632,0,0,0,4.13-2.162v-2.18a2.63,2.63,0,0,0-1.117-2.145L52.547,3.85a4.157,4.157,0,0,0-4.785,0L6.607,34.583A2.607,2.607,0,0,0,5.49,36.728v2.18A2.632,2.632,0,0,0,9.62,41.07L47.779,12.553A4.189,4.189,0,0,1,52.547,12.553Z" transform="translate(4231.253 5338.302)" fill="none" stroke="#231f20" stroke-linecap="round" stroke-linejoin="round" stroke-miterlimit="10" stroke-width="2"/>
      <path id="Path_1533" data-name="Path 1533" d="M41.75,14.694v-9H52.615V22.811" transform="translate(4259.26 5340.309)" fill="none" stroke="#231f20" stroke-linecap="round" stroke-linejoin="round" stroke-miterlimit="10" stroke-width="2"/>
      <circle id="Ellipse_200" data-name="Ellipse 200" cx="26.533" cy="26.533" r="26.533" transform="translate(4277.65 5390.804)" fill="none" stroke="#231f20" stroke-linecap="round" stroke-linejoin="round" stroke-miterlimit="10" stroke-width="2"/>
      <path id="Path_1535" data-name="Path 1535" d="M47.028,28.47S25.476,34.283,24.98,58.831" transform="translate(4246.307 5357.903)" fill="none" stroke="#231f20" stroke-linecap="round" stroke-linejoin="round" stroke-miterlimit="10" stroke-width="2"/>
      <path id="Indian_Rupee_symbol" d="M51.795,2.4h4.279L57.64,0H41.566L40,2.4h2.714c2.818,0,5.428.209,6.471,2.609h-7.62L40,7.411h9.5v.1C49.5,9.29,48.037,12,43.236,12h-2.4v2.3l9.394,11.795h4.279L44.7,13.882c4.071-.209,7.828-2.505,8.35-6.471h3.027l1.566-2.4h-4.7A4.928,4.928,0,0,0,51.795,2.4Z" transform="translate(4255.362 5407.306)" fill="#010101"/>
    </g>
  </g>
</svg>
